<svg xmlns="http://www.w3.org/2000/svg" viewBox="0 0 1610 512"><defs><style>.cls-1{fill:#385cad;}.cls-2{fill:#fff;}.cls-3{fill:none;}</style></defs><g id="Ball_of_mesh" data-name="Ball of mesh"><rect class="cls-1" width="1609.87" height="512.41"/><path class="cls-2" d="M76.09,242.39h64.27v26.5c6.62-18.22,28.15-30.14,52.33-30.14,29.82,0,45.71,9.6,56.32,35.11,8.94-16.23,27.82-35.44,63.27-35.44,47,0,66.58,26.17,66.58,89.44v104h-64.6V334.48c0-31.14-6.95-42.4-27.16-42.4-19.87,0-27.83,11.26-27.83,39.75v100H195V334.48c0-31.47-7-42.07-26.83-42.07s-27.82,11.93-27.82,42.73v96.73H76.09Z"/><rect class="cls-2" x="416.96" y="242.39" width="64.27" height="189.48"/><path class="cls-2" d="M516,337.13c0-58.3,40.09-98.38,98.72-98.38,64.59,0,101.69,43.39,94.74,112H580.28c.33,24.51,14.91,39.42,37.76,39.42,16.23,0,27.49-6.62,31.8-19.54l59,5.63c-11.92,38.76-43.72,59.29-92.75,59.29C555.43,435.51,516,396.76,516,337.13Zm135.16-23.52c-1.33-19.87-14.91-32.79-34.78-32.79-19.22,0-33.46,11.92-35.12,32.79Z"/><path class="cls-2" d="M729.69,380.86l58-6c5,12.26,17.23,20.21,33.46,20.21,15.57,0,25.18-5.63,25.18-14.91,0-31.8-112.63-9.93-111-82.15,1-36.1,34.45-59,84.8-59,43.73,0,79.17,19.21,86.46,52l-57.31,7c-3.64-11.59-13.58-18.88-26.83-18.88-14.91,0-23.85,5.63-23.85,15.24,0,31.47,112.62,4.64,112.62,77.18,0,39.42-35.11,63.6-90.1,63.6C769.1,435.18,736.64,412.66,729.69,380.86Z"/><path class="cls-2" d="M940.37,180.78h64.26v87.78c7-14.91,25.18-29.81,55-29.81,44.06,0,70.23,20.87,70.23,87.12v106h-64.26V332.49c0-30.14-9.61-40.08-30.48-40.08-20.54,0-30.48,11.26-30.48,41.41v98.05H940.37Z"/><path class="cls-2" d="M1161.32,403.71c0-20.53,14.91-31.13,36.11-31.13,18.88,0,35.77,10.6,35.77,31.13,0,20.87-16.89,31.14-35.77,31.14C1176.23,434.85,1161.32,424.58,1161.32,403.71Z"/><path class="cls-2" d="M1263.35,189.72c0-20.54,14.91-31.47,35.78-31.47,19.21,0,36.1,10.93,36.1,31.47s-16.89,31.14-36.1,31.14C1278.26,220.86,1263.35,210.26,1263.35,189.72Zm3.31,52.67h64.27V431.87h-64.27Z"/><path class="cls-2" d="M1365.71,337.13c0-68.24,49.69-98.38,100.38-98.38,50.34,0,99.7,30.14,99.7,98.38,0,68.9-49,99.05-100,99.05C1415.07,436.18,1365.71,406,1365.71,337.13Zm136.15-.33c0-29.15-15.24-45.72-36.1-45.72-20.54,0-36.11,16.57-36.11,45.72,0,29.81,15.57,46.38,36.11,46.38C1486.62,383.18,1501.86,366.61,1501.86,336.8Z"/></g><g id="Ball_of_mesh_reverse" data-name="Ball of mesh reverse"><polygon class="cls-3" points="382.75 126.37 378.56 149.74 382.31 149.79 382.75 126.37"/><path class="cls-3" d="M382.39,149.87h-.08l-3.85-.05,0-.09,4.19-23.38.16,0Zm-3.73-.21,3.57.05.42-22.32Z"/><polygon class="cls-3" points="448.97 79.33 449 83.09 468.5 82.09 448.97 79.33"/><path class="cls-3" d="M448.92,83.18v-.09l0-3.86.09,0L468.51,82v.16Zm.13-3.76,0,3.59,18.57-1Z"/><polygon class="cls-3" points="382.67 173.15 382.31 149.79 378.56 149.74 382.67 173.15"/><path class="cls-3" d="M382.59,173.17l-4.12-23.51h.09l3.83.05v.08l.36,23.36Zm-3.93-23.35,3.91,22.31-.34-22.26Z"/><polygon class="cls-3" points="448.97 79.33 429.46 82.16 449 83.09 448.97 79.33"/><path class="cls-3" d="M449.08,83.18H449l-19.54-.93v-.16l19.6-2.85v.1Zm-18.77-1.06,18.61.89,0-3.59Z"/><polygon class="cls-3" points="515.44 126.29 515.93 149.79 519.65 149.74 515.44 126.29"/><path class="cls-3" d="M515.86,149.88v-.09l-.5-23.5.17,0,4.23,23.55h-.1Zm-.32-22.56.47,22.39,3.54-.05Z"/><polygon class="cls-3" points="448.98 220.42 449.01 216.72 429.4 217.57 448.98 220.42"/><path class="cls-3" d="M449.06,220.51H449l-19.58-2.85v-.16l19.69-.85v.08Zm-18.79-2.9,18.63,2.71,0-3.51Z"/><polygon class="cls-3" points="448.98 220.42 468.58 217.64 449.01 216.72 448.98 220.42"/><path class="cls-3" d="M448.9,220.51v-.09l0-3.78,19.65.92v.16Zm.19-3.7,0,3.51,18.65-2.64Z"/><polygon class="cls-3" points="515.52 173.24 519.65 149.74 515.93 149.79 515.52 173.24"/><path class="cls-3" d="M515.6,173.25h-.16l.42-23.53h.07l3.82-.05,0,.1Zm.41-23.38-.39,22.33,3.93-22.37Z"/><polygon class="cls-3" points="429.46 82.16 427.38 87.54 449 83.09 429.46 82.16"/><path class="cls-3" d="M427.25,87.65l2.16-5.58h0L449,83v.16Zm2.26-5.41-2,5.19,20.84-4.28Z"/><polygon class="cls-3" points="429.46 82.16 410.56 90.9 427.38 87.54 429.46 82.16"/><path class="cls-3" d="M410.58,91l-.05-.15L429.61,82l-.07.19-2.1,5.42h0Zm18.73-8.67-18.09,8.38,16.1-3.22Z"/><polygon class="cls-3" points="468.5 82.09 470.65 87.47 487.45 90.79 468.5 82.09"/><path class="cls-3" d="M487.44,90.87l-16.85-3.33,0,0-2.22-5.57.18.08,19,8.7Zm-16.73-3.48,16.08,3.18-18.14-8.32Z"/><polygon class="cls-3" points="449 83.09 470.65 87.47 468.5 82.09 449 83.09"/><path class="cls-3" d="M470.78,87.57l-.15,0L449,83.17V83l19.56-1,0,.06Zm-21.13-4.43,20.87,4.22-2.07-5.19Z"/><polygon class="cls-3" points="449.01 216.72 427.32 212.26 429.4 217.57 449.01 216.72"/><path class="cls-3" d="M429.35,217.65l0-.05-2.14-5.45.15,0L449,216.64l0,.16Zm-1.9-5.28,2,5.12,18.89-.82Z"/><polygon class="cls-3" points="429.4 217.57 427.32 212.26 410.46 208.77 429.4 217.57"/><path class="cls-3" d="M429.55,217.73l-.18-.09-18.95-8.8.05-.15,16.91,3.5,0,0ZM411.13,209l18.12,8.42-2-5.08Z"/><polygon class="cls-3" points="468.58 217.64 487.59 208.89 470.73 212.33 468.58 217.64"/><path class="cls-3" d="M468.43,217.8l.08-.19,2.16-5.35,16.9-3.45.05.15Zm2.36-5.4-2.05,5.08,18.17-8.37Z"/><polygon class="cls-3" points="468.58 217.64 470.73 212.33 449.01 216.72 468.58 217.64"/><path class="cls-3" d="M468.64,217.73h-.06L449,216.8l0-.16,21.87-4.42-.05.14Zm-19-1.06,18.86.89,2.07-5.12Z"/><polygon class="cls-3" points="410.57 90.9 394.19 105.86 406.38 100.58 410.57 90.9"/><path class="cls-3" d="M394.22,105.93l-.09-.13,16.38-15,.13.1-4.2,9.7h0Zm16.12-14.71L394.6,105.59l11.71-5.08Z"/><polygon class="cls-3" points="410.57 90.9 406.38 100.58 427.38 87.54 410.57 90.9"/><path class="cls-3" d="M406.2,100.78l.1-.24,4.21-9.71h0l16.81-3.36.06.15Zm4.42-9.8-4.06,9.39L427,87.7Z"/><polygon class="cls-3" points="382.75 126.37 382.31 149.79 389.87 122.53 382.75 126.37"/><path class="cls-3" d="M382.39,149.81l-.16,0,.44-23.47,0,0,7.29-3.93Zm.44-23.4-.43,22.74,7.34-26.46Z"/><polygon class="cls-3" points="394.19 105.86 389.87 122.53 406.38 100.58 394.19 105.86"/><path class="cls-3" d="M389.94,122.58l-.15-.07,4.33-16.71,0,0,12.48-5.4-.19.24Zm4.31-16.66-4.2,16.23,16.08-21.38Z"/><polygon class="cls-3" points="394.19 105.86 382.75 126.37 389.87 122.53 394.19 105.86"/><path class="cls-3" d="M382.54,126.57l.13-.24,11.44-20.51.15.06-4.32,16.7,0,0ZM394,106.45l-11,19.71,6.85-3.69Z"/><polygon class="cls-3" points="389.79 177.11 382.31 149.79 382.67 173.15 389.79 177.11"/><path class="cls-3" d="M389.92,177.28l-7.33-4.08v0l-.36-23.36.16,0Zm-7.17-4.18,6.91,3.85-7.26-26.52Z"/><polygon class="cls-3" points="394.07 193.74 389.79 177.11 382.67 173.15 394.07 193.74"/><path class="cls-3" d="M394,193.78l-11.53-20.84,7.4,4.12v0l4.28,16.63Zm-11.11-20.42,10.95,19.78-4.11-16Z"/><polygon class="cls-3" points="487.45 90.78 491.73 100.47 503.92 105.73 487.45 90.78"/><path class="cls-3" d="M503.89,105.81l-12.22-5.28v0l-4.28-9.68.13-.09L504,105.67Zm-12.1-5.41,11.71,5.06L487.68,91.1Z"/><polygon class="cls-3" points="470.65 87.47 491.73 100.47 487.45 90.79 470.65 87.47"/><path class="cls-3" d="M491.91,100.67l-.22-.13-21.08-13,.06-.15,16.84,3.33,0,0Zm-20.83-13,20.47,12.63-4.15-9.4Z"/><polygon class="cls-3" points="427.32 212.26 406.27 199.15 410.46 208.77 427.32 212.26"/><path class="cls-3" d="M427.3,212.34l-16.9-3.5,0,0-4.28-9.86.22.14,21,13.11Zm-16.79-3.64,16.38,3.39-20.44-12.73Z"/><polygon class="cls-3" points="410.46 208.77 406.27 199.15 394.07 193.74 410.46 208.77"/><path class="cls-3" d="M410.4,208.83l-16.39-15,.09-.13,12.24,5.43v0l4.18,9.61ZM394.49,194l15.74,14.44-4-9.24Z"/><polygon class="cls-3" points="406.27 199.15 389.79 177.11 394.07 193.74 406.27 199.15"/><path class="cls-3" d="M406.53,199.35,394,193.79v0l-4.28-16.63.15-.07Zm-12.4-5.67L406,199l-16-21.46Z"/><polygon class="cls-3" points="508.33 122.44 515.93 149.79 515.44 126.29 508.33 122.44"/><path class="cls-3" d="M515.86,149.81l-7.66-27.53.17.09,7.15,3.87v.05l.5,23.5Zm-7.4-27.2,7.38,26.53-.49-22.8Z"/><polygon class="cls-3" points="491.73 100.47 508.33 122.44 503.92 105.73 491.73 100.47"/><path class="cls-3" d="M508.26,122.49l-16.78-22.22,12.51,5.4v0l4.41,16.71ZM492,100.66l16.17,21.4-4.3-16.27Z"/><polygon class="cls-3" points="503.92 105.73 508.33 122.44 515.44 126.29 503.92 105.73"/><path class="cls-3" d="M515.65,126.49l-7.39-4v0l-4.41-16.71.15-.06Zm-7.25-4.1,6.83,3.69-11.07-19.75Z"/><polygon class="cls-3" points="515.52 173.24 515.93 149.79 508.42 177.2 515.52 173.24"/><path class="cls-3" d="M508.29,177.37l0-.19,7.52-27.41.16,0-.42,23.5,0,0Zm7.55-26.93L508.55,177l6.89-3.84Z"/><polygon class="cls-3" points="504.06 193.87 515.52 173.24 508.42 177.2 504.06 193.87"/><path class="cls-3" d="M504.13,193.91l-.15-.06,4.37-16.7,0,0,7.35-4.1-.14.25Zm4.36-16.66-4.19,16,11-19.81Z"/><polygon class="cls-3" points="504.06 193.87 508.42 177.2 491.85 199.27 504.06 193.87"/><path class="cls-3" d="M491.6,199.47l.19-.25,16.57-22.07.14.07-4.37,16.71h0Zm16.64-21.89-16.13,21.49L504,193.81Z"/><polygon class="cls-3" points="487.58 208.89 491.85 199.27 470.73 212.33 487.58 208.89"/><path class="cls-3" d="M470.75,212.41l-.06-.15L492,199.06l-.1.24L487.64,209h0Zm20.92-12.94-20.51,12.69,16.37-3.34Z"/><polygon class="cls-3" points="487.58 208.89 504.06 193.87 491.85 199.27 487.58 208.89"/><path class="cls-3" d="M487.64,209l-.13-.09,4.28-9.66h0l12.21-5.4.08.14Zm4.28-9.62-4.1,9.24,15.81-14.43Z"/><polygon class="cls-3" points="389.79 177.11 391.79 149.84 382.31 149.79 389.79 177.11"/><path class="cls-3" d="M389.71,177.13l-7.51-27.42h.11l9.57,0-2,27.37Zm-7.29-27.26,7.33,26.76,1.95-26.71Z"/><polygon class="cls-3" points="389.87 122.53 382.31 149.79 391.79 149.84 389.87 122.53"/><path class="cls-3" d="M391.88,149.92h-.09l-9.59,0,0-.1,7.56-27.27.16,0Zm-9.46-.21,9.29,0L389.82,123Z"/><polygon class="cls-3" points="449 83.09 427.38 87.53 449.03 92.6 449 83.09"/><path class="cls-3" d="M449.11,92.7l-.1,0-21.65-5.07v-.15L449.08,83v.1Zm-21.35-5.16L449,92.49l0-9.3Z"/><polygon class="cls-3" points="449 83.09 449.03 92.6 470.65 87.47 449 83.09"/><path class="cls-3" d="M449,92.7v-.1l0-9.61.09,0,21.66,4.38v.15Zm.13-9.51,0,9.3,21.16-5Z"/><polygon class="cls-3" points="508.33 122.44 506.45 149.84 515.93 149.79 508.33 122.44"/><path class="cls-3" d="M506.36,149.92v-.09l1.88-27.39.16,0L516,149.87h-.1Zm2-27-1.84,26.84,9.29,0Z"/><polygon class="cls-3" points="449.01 216.72 470.73 212.33 449.04 207.25 449.01 216.72"/><path class="cls-3" d="M448.93,216.82v-.1l0-9.57.1,0,21.69,5.08v.16Zm.19-9.46,0,9.26,21.26-4.29Z"/><polygon class="cls-3" points="508.42 177.2 515.93 149.79 506.45 149.84 508.42 177.2"/><path class="cls-3" d="M508.5,177.22h-.16l-2-27.45h.09l9.59,0,0,.1Zm-2-27.3,1.93,26.8,7.36-26.85Z"/><polygon class="cls-3" points="449.01 216.72 449.04 207.25 427.32 212.26 449.01 216.72"/><path class="cls-3" d="M449.09,216.82l-.1,0-21.69-4.46v-.16l21.82-5v.1Zm-21.39-4.56,21.23,4.36,0-9.26Z"/><polygon class="cls-3" points="427.38 87.54 425.38 100.94 449.03 92.6 427.38 87.54"/><path class="cls-3" d="M425.28,101.06l0-.13,2-13.49.09,0,21.92,5.12-.26.09Zm2.17-13.42-2,13.18,23.26-8.21Z"/><polygon class="cls-3" points="427.38 87.54 406.38 100.58 425.38 100.94 427.38 87.54"/><path class="cls-3" d="M425.45,101h-.07l-19.28-.37.24-.14,21.15-13.14,0,.18Zm-18.79-.53,18.65.36,2-13.16Z"/><polygon class="cls-3" points="470.65 87.47 472.72 100.88 491.73 100.47 470.65 87.47"/><path class="cls-3" d="M472.65,101v-.07l-2.1-13.59.15.1L492,100.54h-.28Zm-1.89-13.33,2,13.17,18.67-.41Z"/><polygon class="cls-3" points="449.03 92.6 472.72 100.88 470.65 87.47 449.03 92.6"/><path class="cls-3" d="M472.82,101l-.13,0-23.95-8.38.27-.06,21.71-5.15v.08Zm-23.5-8.39,23.29,8.15-2-13.19Z"/><polygon class="cls-3" points="449.04 207.25 425.33 198.88 427.32 212.26 449.04 207.25"/><path class="cls-3" d="M427.25,212.36v-.09l-2-13.51.13,0,24,8.47ZM425.43,199l2,13.16,21.36-4.92Z"/><polygon class="cls-3" points="427.32 212.26 425.33 198.88 406.27 199.15 427.32 212.26"/><path class="cls-3" d="M427.43,212.42,406,199.08l19.4-.28v.07Zm-20.88-13.19,20.66,12.87L425.26,199Z"/><polygon class="cls-3" points="406.38 100.58 389.87 122.53 404.13 121.13 406.38 100.58"/><path class="cls-3" d="M389.69,122.63l.12-.15,16.68-22.19,0,.29L404.2,121.2Zm16.57-21.77-16.21,21.57,14-1.38Z"/><polygon class="cls-3" points="389.87 122.53 391.79 149.84 404.13 121.13 389.87 122.53"/><path class="cls-3" d="M391.87,149.87l-.16,0-1.93-27.39h.08l14.4-1.42-.06.13ZM390,122.6l1.89,26.9L404,121.22Z"/><polygon class="cls-3" points="406.38 100.58 404.13 121.13 425.38 100.94 406.38 100.58"/><path class="cls-3" d="M404,121.34l0-.22,2.25-20.63h.08l19.2.37-.14.14Zm2.43-20.68-2.22,20.26L425.18,101Z"/><polygon class="cls-3" points="470.73 212.33 472.79 198.94 449.04 207.25 470.73 212.33"/><path class="cls-3" d="M470.8,212.43l-.09,0-22-5.14.26-.09,23.88-8.36Zm-21.47-5.19,21.34,5,2-13.17Z"/><polygon class="cls-3" points="470.73 212.33 491.85 199.27 472.79 198.94 470.73 212.33"/><path class="cls-3" d="M470.63,212.5l0-.18,2.07-13.46h.07l19.34.33ZM472.86,199l-2,13.15,20.73-12.83Z"/><polygon class="cls-3" points="404.07 178.61 391.79 149.84 389.79 177.11 404.07 178.61"/><path class="cls-3" d="M404.2,178.71l-14.5-1.53v-.07l2-27.28.16,0ZM389.88,177l14.06,1.48-12.09-28.34Z"/><polygon class="cls-3" points="406.27 199.15 404.07 178.61 389.79 177.11 406.27 199.15"/><path class="cls-3" d="M406.39,199.44l-.18-.24L389.61,177l.19,0,14.34,1.51v.07ZM390,177.21l16.19,21.66L404,178.69Z"/><polygon class="cls-3" points="425.33 198.88 404.07 178.61 406.27 199.15 425.33 198.88"/><path class="cls-3" d="M406.2,199.24,404,178.4l.16.15L425.53,199h-.2Zm-2-20.41,2.18,20.24,18.78-.27Z"/><polygon class="cls-3" points="494.05 121.06 506.45 149.84 508.33 122.44 494.05 121.06"/><path class="cls-3" d="M506.37,149.87,493.93,121h.13l14.36,1.39v.08l-1.88,27.39Zm-12.19-28.71,12.21,28.34,1.85-27Z"/><polygon class="cls-3" points="491.73 100.47 494.05 121.06 508.33 122.44 491.73 100.47"/><path class="cls-3" d="M508.51,122.54h-.19L494,121.14v-.07l-2.35-20.89.18.24ZM494.13,121l14,1.36-16.3-21.6Z"/><polygon class="cls-3" points="472.72 100.88 494.05 121.06 491.73 100.47 472.72 100.88"/><path class="cls-3" d="M494.16,121.28,472.52,100.8h.2l19.09-.42v.08ZM472.92,101l21,19.89-2.29-20.3Z"/><polygon class="cls-3" points="508.42 177.2 506.45 149.84 494.13 178.69 508.42 177.2"/><path class="cls-3" d="M494,178.78l.05-.13,12.32-28.84.16,0,2,27.44h-.08Zm12.39-28.6-12.13,28.41,14.07-1.46Z"/><polygon class="cls-3" points="491.85 199.27 508.42 177.2 494.13 178.68 491.85 199.27"/><path class="cls-3" d="M491.74,199.55l0-.29,2.28-20.65h.07l14.48-1.5-.11.15Zm2.46-20.79L492,199l16.28-21.68Z"/><polygon class="cls-3" points="491.85 199.27 494.13 178.68 472.79 198.94 491.85 199.27"/><path class="cls-3" d="M491.93,199.35h-.08L472.59,199l.14-.14,21.5-20.41,0,.22ZM473,198.86l18.79.32L494,178.9Z"/><polygon class="cls-3" points="449.03 92.6 425.38 100.94 449.05 107.74 449.03 92.6"/><path class="cls-3" d="M449.14,107.85l-.11,0L425.11,101l.24-.08,23.76-8.39v.12Zm-23.49-6.92,23.32,6.7,0-14.92Z"/><polygon class="cls-3" points="449.03 92.6 449.05 107.74 472.72 100.88 449.03 92.6"/><path class="cls-3" d="M449,107.85v-.11l0-15.26.1,0L473,100.89l-.24.07Zm.14-15.14,0,14.92,23.31-6.76Z"/><polygon class="cls-3" points="404.07 178.61 406.92 149.88 391.79 149.84 404.07 178.61"/><path class="cls-3" d="M404,178.64l-12.32-28.89h.12l15.22,0v.09l-2.85,28.74Zm-12.07-28.72L404,178.29,406.83,150Z"/><polygon class="cls-3" points="404.13 121.13 391.79 149.84 406.92 149.88 404.13 121.13"/><path class="cls-3" d="M407,150h-.09l-15.25,0,.05-.12,12.33-28.7.16,0Zm-15.09-.21,14.91,0-2.75-28.34Z"/><polygon class="cls-3" points="494.13 178.68 506.45 149.84 491.29 149.88 494.13 178.68"/><path class="cls-3" d="M494.2,178.72l-.15,0L491.2,149.8h.09l15.28,0-.05.11ZM491.38,150l2.8,28.4,12.14-28.44Z"/><polygon class="cls-3" points="494.05 121.06 491.29 149.88 506.45 149.84 494.05 121.06"/><path class="cls-3" d="M491.2,150v-.09L494,121.06l.16,0,12.44,28.89h-.12Zm2.9-28.57-2.72,28.41,14.94,0Z"/><polygon class="cls-3" points="449.04 207.25 449.06 192.11 425.33 198.88 449.04 207.25"/><path class="cls-3" d="M449.12,207.37l-24.06-8.5.25-.07,23.83-6.8v.11Zm-23.52-8.49L449,207.14l0-14.92Z"/><polygon class="cls-3" points="449.04 207.25 472.79 198.94 449.06 192.11 449.04 207.25"/><path class="cls-3" d="M449,207.37v-.12L449,192l.1,0,24,6.9-.24.09Zm.18-15.15,0,14.92,23.4-8.19Z"/><polygon class="cls-3" points="425.38 100.94 404.13 121.13 424.67 122.76 425.38 100.94"/><path class="cls-3" d="M424.74,122.85h-.08l-20.72-1.64.13-.13,21.4-20.32v.19Zm-20.42-1.79,20.27,1.61.7-21.53Z"/><polygon class="cls-3" points="404.13 121.13 406.92 149.88 424.67 122.76 404.13 121.13"/><path class="cls-3" d="M406.86,150.11l0-.23L404,121h.1l20.67,1.64-.07.11Zm-2.64-28.89L407,149.64l17.54-26.81Z"/><polygon class="cls-3" points="425.38 100.94 424.67 122.76 449.05 107.74 425.38 100.94"/><path class="cls-3" d="M424.58,122.91v-.15l.72-21.92.1,0,23.85,6.85-.15.1Zm.88-21.86-.71,21.56,24.1-14.84Z"/><polygon class="cls-3" points="449.05 107.74 473.49 122.72 472.72 100.88 449.05 107.74"/><path class="cls-3" d="M473.57,122.87l-.13-.08-24.59-15.08.18,0,23.76-6.88v.1Zm-24.32-15.1,24.15,14.81L472.64,101Z"/><polygon class="cls-3" points="473.49 122.72 491.29 149.88 494.05 121.06 473.49 122.72"/><path class="cls-3" d="M491.35,150.12l-18-27.46.14,0L494.14,121v.1ZM473.63,122.8l17.6,26.84L494,121.15Z"/><polygon class="cls-3" points="472.72 100.88 473.49 122.72 494.05 121.06 472.72 100.88"/><path class="cls-3" d="M473.41,122.81v-.08l-.78-22,.14.13,21.47,20.31h-.18Zm-.6-21.73.75,21.56,20.3-1.64Z"/><polygon class="cls-3" points="425.33 198.88 424.63 177.05 404.07 178.61 425.33 198.88"/><path class="cls-3" d="M425.42,199.07l-.15-.13-21.39-20.39.18,0L424.71,177v.08Zm-21.16-20.39,21,20-.68-21.54Z"/><polygon class="cls-3" points="424.63 177.05 406.92 149.88 404.07 178.61 424.63 177.05"/><path class="cls-3" d="M404,178.7l2.88-29.06.13.19,17.79,27.29Zm3-28.59-2.82,28.41L424.49,177Z"/><polygon class="cls-3" points="449.06 192.11 424.64 177.05 425.33 198.88 449.06 192.11"/><path class="cls-3" d="M425.25,199v-.1l-.7-22,.13.08,24.58,15.16-.18.05Zm-.53-21.78.69,21.57,23.45-6.69Z"/><polygon class="cls-3" points="472.79 198.94 473.53 177.09 449.06 192.11 472.79 198.94"/><path class="cls-3" d="M472.86,199.05l-.1,0-23.9-6.89L449,192l24.59-15.1v.15Zm-23.6-7,23.45,6.75.73-21.59Z"/><polygon class="cls-3" points="494.13 178.68 491.29 149.88 473.53 177.09 494.13 178.68"/><path class="cls-3" d="M494.22,178.77h-.1l-20.73-1.6.07-.12,17.89-27.4,0,.23ZM473.67,177,494,178.59l-2.81-28.47Z"/><polygon class="cls-3" points="472.79 198.94 494.13 178.69 473.53 177.09 472.79 198.94"/><path class="cls-3" d="M472.7,199.14v-.2l.74-21.94h.08l20.79,1.61-.14.12Zm.9-22-.73,21.56,21.07-20Z"/><polygon class="cls-3" points="449.05 107.74 449.07 127.51 473.49 122.72 449.05 107.74"/><path class="cls-3" d="M449,127.61v-.1l0-19.92.13.08,24.61,15.1-.21,0Zm.14-19.72,0,19.52,24.12-4.72Z"/><polygon class="cls-3" points="424.63 177.05 426.68 149.9 406.92 149.88 424.63 177.05"/><path class="cls-3" d="M424.7,177.3l-.13-.2-17.8-27.31h.15l19.85,0v.09ZM407.07,150l17.5,26.85,2-26.83Z"/><polygon class="cls-3" points="424.67 122.76 426.68 149.9 449.07 127.51 424.67 122.76"/><path class="cls-3" d="M426.61,150.09v-.18l-2-27.25.1,0,24.56,4.78Zm-1.86-27.23,2,26.86,22.16-22.16Z"/><polygon class="cls-3" points="449.05 107.74 424.67 122.76 449.07 127.51 449.05 107.74"/><path class="cls-3" d="M449.15,127.61l-.09,0-24.62-4.79.18-.11,24.51-15.1v.15Zm-24.26-4.89,24.1,4.69,0-19.52Z"/><polygon class="cls-3" points="424.67 122.76 406.92 149.88 426.68 149.9 424.67 122.76"/><path class="cls-3" d="M426.77,150h-.09l-19.91,0,.08-.13,17.88-27.32,0,.24Zm-19.7-.19,19.52,0-2-26.82Z"/><polygon class="cls-3" points="449.06 192.11 449.07 172.33 424.64 177.05 449.06 192.11"/><path class="cls-3" d="M449.14,192.25l-.12-.07L424.42,177l24.74-4.78v.1Zm-24.28-15.16L449,192V172.42Z"/><polygon class="cls-3" points="449.06 192.11 473.53 177.09 449.07 172.33 449.06 192.11"/><path class="cls-3" d="M449,192.25v-20l.1,0,24.66,4.8-.18.11Zm.18-19.83,0,19.54,24.17-14.83Z"/><polygon class="cls-3" points="473.53 177.09 491.29 149.88 471.49 149.91 473.53 177.09"/><path class="cls-3" d="M473.46,177.33v-.24l-2-27.27h.08l19.95,0-.08.12ZM471.58,150l2,26.85L491.14,150Z"/><polygon class="cls-3" points="449.07 127.51 471.49 149.9 473.49 122.73 449.07 127.51"/><path class="cls-3" d="M471.56,150.09l-.12-.13-22.53-22.5.15,0,24.52-4.8v.1Zm-22.32-22.53,22.19,22.16,2-26.89Z"/><polygon class="cls-3" points="473.49 122.72 471.49 149.91 491.29 149.88 473.49 122.72"/><path class="cls-3" d="M471.41,150v-.09l2-27.42.14.2L491.44,150h-.15Zm2.14-27-2,26.85,19.56,0Z"/><polygon class="cls-3" points="473.53 177.09 471.49 149.91 449.08 172.33 473.53 177.09"/><path class="cls-3" d="M473.62,177.19l-.11,0-24.6-4.79,22.65-22.66,0,.18Zm-24.38-4.92,24.2,4.72-2-26.9Z"/><polygon class="cls-3" points="449.07 172.33 426.68 149.9 424.63 177.05 449.07 172.33"/><path class="cls-3" d="M424.55,177.15v-.1l2.06-27.33.13.12,22.5,22.54-.15,0Zm2.2-27.06-2,26.86,24.19-4.68Z"/><polygon class="cls-3" points="449.07 127.51 449.08 149.91 471.49 149.9 449.07 127.51"/><path class="cls-3" d="M449,150V127.31l.14.14L471.69,150Zm.15-22.28v22.12H471.3Z"/><polygon class="cls-3" points="449.07 127.51 426.68 149.9 449.08 149.91 449.07 127.51"/><path class="cls-3" d="M449.16,150H426.48l.14-.14,22.53-22.53Zm-22.28-.17H449V127.71Z"/><polygon class="cls-3" points="449.07 172.33 449.08 149.91 426.68 149.9 449.07 172.33"/><path class="cls-3" d="M449.16,172.52l-.14-.14-22.54-22.56h22.68ZM426.88,150,449,172.13V150Z"/><polygon class="cls-3" points="449.07 172.33 471.49 149.9 449.08 149.91 449.07 172.33"/><path class="cls-3" d="M449,172.52V149.83h22.69l-.14.14Zm.17-22.53v22.14L471.3,150Z"/><rect class="cls-2" x="483.66" y="167.56" width="0.33" height="20.66" transform="translate(269.11 646.53) rotate(-85.57)"/><polygon class="cls-2" points="494.14 178.85 494.11 178.52 508.4 177.04 508.44 177.36 494.14 178.85"/><rect class="cls-2" x="507.91" y="175.06" width="8.13" height="0.33" transform="translate(-20.42 272.05) rotate(-29.2)"/><rect class="cls-2" x="462.22" y="187.85" width="21.86" height="0.32" transform="translate(269.12 654.49) rotate(-88.05)"/><polygon class="cls-2" points="472.9 199.06 472.68 198.82 494.02 178.57 494.24 178.8 472.9 199.06"/><polygon class="cls-2" points="492.01 199.28 491.69 199.25 493.96 178.67 494.29 178.7 492.01 199.28"/><rect class="cls-2" x="486.34" y="188.07" width="27.59" height="0.33" transform="translate(49.41 475.31) rotate(-53.12)"/><polygon class="cls-2" points="491.85 199.43 472.79 199.1 472.79 198.78 491.86 199.1 491.85 199.43"/><rect class="cls-2" x="497.63" y="185.37" width="17.23" height="0.33" transform="translate(198.18 628.03) rotate(-75.28)"/><polygon class="cls-2" points="491.92 199.42 491.79 199.12 503.99 193.72 504.12 194.01 491.92 199.42"/><rect class="cls-2" x="464.98" y="205.47" width="13.55" height="0.33" transform="translate(196.9 640.72) rotate(-81.27)"/><polygon class="cls-2" points="470.82 212.47 470.65 212.19 491.77 199.13 491.94 199.41 470.82 212.47"/><polygon class="cls-2" points="487.73 208.96 487.44 208.82 491.7 199.2 492 199.33 487.73 208.96"/><rect class="cls-2" x="470.56" y="210.45" width="17.2" height="0.33" transform="translate(-32.45 100.13) rotate(-11.54)"/><rect class="cls-2" x="466.79" y="214.82" width="5.73" height="0.33" transform="translate(94.05 569.55) rotate(-67.94)"/><polygon class="cls-2" points="389.71 177.25 382.59 173.29 382.75 173.01 389.87 176.97 389.71 177.25"/><polygon class="cls-2" points="404.05 178.78 389.77 177.28 389.81 176.95 404.08 178.45 404.05 178.78"/><polygon class="cls-2" points="404.08 178.78 404.05 178.45 424.62 176.89 424.65 177.21 404.08 178.78"/><rect class="cls-2" x="391.77" y="176.84" width="0.33" height="17.17" transform="translate(-33.83 103.44) rotate(-14.42)"/><polygon class="cls-2" points="406.14 199.25 389.66 177.21 389.92 177.01 406.4 199.06 406.14 199.25"/><rect class="cls-2" x="405.01" y="178.55" width="0.33" height="20.66" transform="translate(-17.87 44.4) rotate(-6.14)"/><polygon class="cls-2" points="406.21 199.3 394 193.88 394.13 193.59 406.34 199 406.21 199.3"/><polygon class="cls-2" points="425.22 199 403.95 178.73 404.18 178.5 425.44 198.76 425.22 199"/><polygon class="cls-2" points="425.17 198.88 424.47 177.06 424.8 177.05 425.49 198.87 425.17 198.88"/><polygon class="cls-2" points="406.28 199.32 406.27 198.99 425.33 198.72 425.33 199.04 406.28 199.32"/><polygon class="cls-2" points="410.31 208.83 406.13 199.22 406.42 199.09 410.61 208.7 410.31 208.83"/><polygon class="cls-2" points="427.23 212.4 406.19 199.29 406.36 199.01 427.4 212.12 427.23 212.4"/><rect class="cls-2" x="426.16" y="198.81" width="0.32" height="13.53" transform="translate(-25.59 64.92) rotate(-8.46)"/><polygon class="cls-2" points="427.29 212.42 410.42 208.93 410.49 208.61 427.35 212.1 427.29 212.42"/><polygon class="cls-2" points="429.25 217.63 427.17 212.32 427.47 212.2 429.55 217.51 429.25 217.63"/><polygon class="cls-2" points="515.36 126.43 508.25 122.59 508.41 122.3 515.51 126.14 515.36 126.43"/><polygon class="cls-2" points="508.31 122.61 494.04 121.22 494.07 120.9 508.35 122.28 508.31 122.61"/><polygon class="cls-2" points="473.5 122.89 473.47 122.56 494.04 120.9 494.06 121.22 473.5 122.89"/><polygon class="cls-2" points="508.17 122.48 503.76 105.77 504.08 105.69 508.49 122.4 508.17 122.48"/><polygon class="cls-2" points="508.2 122.54 491.6 100.56 491.86 100.37 508.46 122.35 508.2 122.54"/><rect class="cls-2" x="492.73" y="100.4" width="0.33" height="20.73" transform="translate(-9.31 55.91) rotate(-6.43)"/><polygon class="cls-2" points="503.86 105.88 491.67 100.61 491.8 100.32 503.99 105.58 503.86 105.88"/><polygon class="cls-2" points="493.94 121.18 472.61 101 472.83 100.76 494.16 120.94 493.94 121.18"/><polygon class="cls-2" points="473.32 122.73 472.55 100.89 472.88 100.88 473.65 122.72 473.32 122.73"/><polygon class="cls-2" points="472.72 101.05 472.71 100.72 491.73 100.3 491.74 100.63 472.72 101.05"/><rect class="cls-2" x="489.43" y="90.33" width="0.33" height="10.58" transform="translate(3.12 206.05) rotate(-23.84)"/><polygon class="cls-2" points="491.65 100.61 470.56 87.6 470.74 87.33 491.82 100.33 491.65 100.61"/><rect class="cls-2" x="471.52" y="87.39" width="0.33" height="13.57" transform="translate(-8.84 72.93) rotate(-8.76)"/><polygon class="cls-2" points="487.42 90.95 470.62 87.63 470.68 87.31 487.49 90.63 487.42 90.95"/><rect class="cls-2" x="469.41" y="81.88" width="0.33" height="5.79" transform="translate(2.09 180.4) rotate(-21.79)"/><rect class="cls-2" x="414.24" y="111.64" width="0.33" height="20.6" transform="translate(260.06 525.4) rotate(-85.46)"/><rect class="cls-2" x="389.84" y="121.66" width="14.33" height="0.33" transform="translate(-9.98 39.26) rotate(-5.59)"/><polygon class="cls-2" points="382.83 126.51 382.67 126.22 389.79 122.38 389.95 122.67 382.83 126.51"/><polygon class="cls-2" points="424.83 122.76 424.5 122.75 425.22 100.94 425.54 100.95 424.83 122.76"/><polygon class="cls-2" points="404.24 121.25 404.02 121.01 425.27 100.83 425.49 101.06 404.24 121.25"/><polygon class="cls-2" points="404.29 121.15 403.97 121.11 406.21 100.56 406.54 100.59 404.29 121.15"/><rect class="cls-2" x="384.39" y="111.39" width="27.46" height="0.33" transform="matrix(0.6, -0.8, 0.8, 0.6, 69.88, 362.96)"/><rect class="cls-2" x="415.72" y="91.25" width="0.33" height="19.01" transform="translate(307.13 514.62) rotate(-88.9)"/><polygon class="cls-2" points="390.03 122.57 389.71 122.49 394.03 105.82 394.34 105.9 390.03 122.57"/><polygon class="cls-2" points="394.25 106.01 394.12 105.71 406.31 100.42 406.44 100.72 394.25 106.01"/><rect class="cls-2" x="419.6" y="94.08" width="13.55" height="0.33" transform="translate(270.54 502.16) rotate(-81.55)"/><rect class="cls-2" x="404.52" y="93.89" width="24.72" height="0.33" transform="translate(13.07 233.96) rotate(-31.82)"/><polygon class="cls-2" points="406.53 100.64 406.23 100.51 410.42 90.84 410.72 90.97 406.53 100.64"/><polygon class="cls-2" points="410.6 91.06 410.54 90.74 427.35 87.38 427.41 87.7 410.6 91.06"/><rect class="cls-2" x="425.54" y="84.68" width="5.77" height="0.33" transform="translate(195.12 454.05) rotate(-68.91)"/><rect class="cls-2" x="497.97" y="163.33" width="28.42" height="0.33" transform="translate(219.5 614.49) rotate(-74.72)"/><polygon class="cls-2" points="515.69 173.24 515.36 173.24 515.77 149.79 516.1 149.8 515.69 173.24"/><polygon class="cls-2" points="515.77 149.8 515.27 126.29 515.6 126.28 516.1 149.79 515.77 149.8"/><rect class="cls-2" x="511.97" y="121.93" width="0.33" height="28.39" transform="translate(-17.75 142.19) rotate(-15.54)"/><polygon class="cls-2" points="515.94 149.96 515.93 149.63 519.65 149.58 519.65 149.91 515.94 149.96"/><polygon class="cls-2" points="494.28 178.75 493.98 178.62 506.3 149.78 506.6 149.9 494.28 178.75"/><polygon class="cls-2" points="508.26 177.21 506.29 149.85 506.61 149.83 508.58 177.19 508.26 177.21"/><rect class="cls-2" x="493.66" y="135.98" width="27.46" height="0.33" transform="translate(336.75 632.99) rotate(-86.07)"/><rect class="cls-2" x="500.09" y="119.78" width="0.33" height="31.33" transform="translate(-12.78 208.92) rotate(-23.3)"/><polygon class="cls-2" points="506.45 150 506.45 149.68 515.93 149.63 515.94 149.96 506.45 150"/><polygon class="cls-2" points="473.66 177.18 473.39 177 491.15 149.79 491.43 149.97 473.66 177.18"/><rect class="cls-2" x="492.55" y="149.81" width="0.33" height="28.95" transform="translate(-13.74 49.15) rotate(-5.63)"/><polygon class="cls-2" points="491.45 149.89 491.13 149.86 493.89 121.05 494.22 121.08 491.45 149.89"/><polygon class="cls-2" points="491.15 149.97 473.35 122.81 473.63 122.64 491.43 149.79 491.15 149.97"/><polygon class="cls-2" points="491.29 150.04 491.29 149.72 506.45 149.68 506.45 150 491.29 150.04"/><polygon class="cls-2" points="473.37 177.1 471.33 149.92 471.66 149.89 473.69 177.08 473.37 177.1"/><rect class="cls-2" x="458.86" y="136.15" width="27.25" height="0.33" transform="matrix(0.07, -1, 1, 0.07, 301.99, 597.57)"/><polygon class="cls-2" points="471.49 150.07 471.49 149.74 491.29 149.72 491.29 150.04 471.49 150.07"/><polygon class="cls-2" points="424.8 177.06 424.47 177.04 426.52 149.89 426.84 149.91 424.8 177.06"/><rect class="cls-2" x="425.51" y="122.72" width="0.33" height="27.22" transform="translate(-8.92 31.86) rotate(-4.24)"/><rect class="cls-2" x="391.05" y="164.08" width="28.88" height="0.33" transform="matrix(0.1, -1, 1, 0.1, 202.53, 551.81)"/><rect class="cls-2" x="415.62" y="147.24" width="0.33" height="32.44" transform="translate(-21.8 253.57) rotate(-33.1)"/><polygon class="cls-2" points="407.06 149.97 406.78 149.79 424.53 122.67 424.8 122.85 407.06 149.97"/><polygon class="cls-2" points="406.76 149.89 403.97 121.14 404.29 121.11 407.08 149.86 406.76 149.89"/><polygon class="cls-2" points="426.68 150.07 406.92 150.04 406.92 149.71 426.68 149.74 426.68 150.07"/><rect class="cls-2" x="377.12" y="163.31" width="27.35" height="0.33" transform="translate(199.19 541.27) rotate(-85.81)"/><rect class="cls-2" x="397.77" y="148.58" width="0.33" height="31.29" transform="translate(-32.53 169.31) rotate(-23.1)"/><rect class="cls-2" x="382.34" y="135.32" width="31.25" height="0.33" transform="translate(115.94 447.24) rotate(-66.67)"/><polygon class="cls-2" points="391.63 149.85 389.71 122.54 390.03 122.52 391.95 149.82 391.63 149.85"/><polygon class="cls-2" points="406.92 150.04 391.79 150 391.79 149.67 406.92 149.71 406.92 150.04"/><rect class="cls-2" x="382.33" y="149.79" width="0.32" height="23.37" transform="translate(-2.45 5.93) rotate(-0.89)"/><rect class="cls-2" x="385.89" y="149.29" width="0.33" height="28.33" transform="translate(-29.46 107.75) rotate(-15.31)"/><rect class="cls-2" x="371.94" y="135.99" width="28.29" height="0.33" transform="translate(151.44 471.63) rotate(-74.45)"/><rect class="cls-2" x="370.81" y="137.91" width="23.43" height="0.32" transform="translate(237 517.83) rotate(-88.88)"/><polygon class="cls-2" points="391.79 150 382.31 149.95 382.31 149.63 391.79 149.67 391.79 150"/><polygon class="cls-2" points="382.31 149.95 378.56 149.9 378.56 149.58 382.31 149.63 382.31 149.95"/><polygon class="cls-2" points="473.5 177.25 449.04 172.49 449.11 172.17 473.56 176.93 473.5 177.25"/><polygon class="cls-2" points="424.67 177.21 424.6 176.89 449.05 172.17 449.11 172.49 424.67 177.21"/><polygon class="cls-2" points="449.19 172.44 448.96 172.21 471.38 149.79 471.61 150.02 449.19 172.44"/><polygon class="cls-2" points="448.96 172.44 426.56 150.02 426.79 149.79 449.19 172.21 448.96 172.44"/><polygon class="cls-2" points="449.15 192.25 448.98 191.97 473.44 176.95 473.61 177.23 449.15 192.25"/><polygon class="cls-2" points="472.74 199.1 449.02 192.26 449.11 191.95 472.83 198.78 472.74 199.1"/><polygon class="cls-2" points="448.98 192.25 424.55 177.19 424.72 176.91 449.15 191.97 448.98 192.25"/><rect class="cls-2" x="424.86" y="195.33" width="24.68" height="0.33" transform="translate(-36.8 127.01) rotate(-15.87)"/><rect class="cls-2" x="448.91" y="172.33" width="0.32" height="19.78"/><polygon class="cls-2" points="449.09 207.41 448.98 207.1 472.73 198.79 472.84 199.09 449.09 207.41"/><polygon class="cls-2" points="470.69 212.49 449 207.41 449.07 207.09 470.77 212.17 470.69 212.49"/><rect class="cls-2" x="437.02" y="190.49" width="0.33" height="25.14" transform="translate(100.08 547.63) rotate(-70.54)"/><rect class="cls-2" x="427.03" y="209.59" width="22.29" height="0.33" transform="translate(-35.86 103.51) rotate(-12.95)"/><polygon class="cls-2" points="449.2 207.25 448.88 207.25 448.9 192.11 449.22 192.11 449.2 207.25"/><polygon class="cls-2" points="449.04 216.88 448.98 216.56 470.7 212.17 470.76 212.49 449.04 216.88"/><polygon class="cls-2" points="468.57 217.81 449 216.89 449.02 216.56 468.59 217.48 468.57 217.81"/><polygon class="cls-2" points="448.98 216.88 427.29 212.42 427.35 212.1 449.04 216.56 448.98 216.88"/><polygon class="cls-2" points="429.41 217.73 429.4 217.41 449 216.56 449.02 216.89 429.41 217.73"/><polygon class="cls-2" points="449.17 216.72 448.85 216.72 448.88 207.25 449.2 207.25 449.17 216.72"/><polygon class="cls-2" points="449.14 220.42 448.82 220.41 448.85 216.72 449.17 216.72 449.14 220.42"/><polygon class="cls-2" points="449.1 127.67 449.04 127.35 473.45 122.57 473.52 122.89 449.1 127.67"/><polygon class="cls-2" points="449.04 127.67 424.63 122.92 424.7 122.6 449.1 127.35 449.04 127.67"/><polygon class="cls-2" points="471.38 150.02 448.96 127.62 449.19 127.39 471.61 149.79 471.38 150.02"/><polygon class="cls-2" points="426.79 150.02 426.56 149.79 448.96 127.39 449.19 127.62 426.79 150.02"/><polygon class="cls-2" points="473.4 122.86 448.97 107.88 449.14 107.6 473.57 122.59 473.4 122.86"/><rect class="cls-2" x="448.57" y="104.15" width="24.64" height="0.33" transform="translate(-10.84 132.06) rotate(-16.12)"/><polygon class="cls-2" points="424.75 122.9 424.58 122.62 448.97 107.6 449.14 107.88 424.75 122.9"/><polygon class="cls-2" points="449.01 107.9 425.34 101.1 425.43 100.79 449.1 107.58 449.01 107.9"/><rect class="cls-2" x="448.9" y="107.74" width="0.32" height="19.77"/><polygon class="cls-2" points="472.66 101.04 448.97 92.75 449.08 92.44 472.77 100.73 472.66 101.04"/><polygon class="cls-2" points="449.07 92.75 448.99 92.44 470.61 87.31 470.69 87.62 449.07 92.75"/><rect class="cls-2" x="424.67" y="96.61" width="25.08" height="0.33" transform="translate(-7.31 150.83) rotate(-19.41)"/><polygon class="cls-2" points="448.99 92.75 427.34 87.69 427.42 87.38 449.06 92.44 448.99 92.75"/><polygon class="cls-2" points="448.89 107.74 448.87 92.6 449.19 92.6 449.22 107.74 448.89 107.74"/><polygon class="cls-2" points="470.62 87.63 448.97 83.25 449.03 82.93 470.68 87.31 470.62 87.63"/><polygon class="cls-2" points="449.01 83.26 448.99 82.93 468.49 81.92 468.51 82.25 449.01 83.26"/><polygon class="cls-2" points="427.41 87.69 427.35 87.38 448.96 82.93 449.03 83.25 427.41 87.69"/><rect class="cls-2" x="439.07" y="72.84" width="0.33" height="19.56" transform="translate(335.62 517.38) rotate(-87.25)"/><polygon class="cls-2" points="448.87 92.6 448.84 83.09 449.16 83.09 449.19 92.6 448.87 92.6"/><polygon class="cls-2" points="448.84 83.09 448.81 79.33 449.13 79.33 449.16 83.09 448.84 83.09"/><rect class="cls-2" x="449.08" y="149.75" width="22.41" height="0.33"/><rect class="cls-2" x="426.68" y="149.75" width="22.4" height="0.33"/><rect class="cls-2" x="448.92" y="149.91" width="0.32" height="22.41"/><rect class="cls-2" x="448.91" y="127.51" width="0.32" height="22.41"/><polygon class="cls-2" points="504.2 193.94 503.92 193.79 515.38 173.16 515.66 173.32 504.2 193.94"/><rect class="cls-2" x="484.67" y="201.22" width="22.3" height="0.33" transform="translate(-6.11 387.01) rotate(-42.4)"/><polygon class="cls-2" points="468.65 217.79 468.51 217.49 487.52 208.74 487.65 209.04 468.65 217.79"/><polygon class="cls-2" points="393.92 193.81 382.53 173.23 382.81 173.07 394.21 193.66 393.92 193.81"/><polygon class="cls-2" points="410.35 208.89 393.96 193.85 394.18 193.62 410.57 208.65 410.35 208.89"/><polygon class="cls-2" points="429.33 217.72 410.39 208.91 410.53 208.62 429.47 217.42 429.33 217.72"/><polygon class="cls-2" points="515.3 126.37 503.78 105.81 504.06 105.65 515.58 126.21 515.3 126.37"/><rect class="cls-2" x="495.52" y="87.14" width="0.33" height="22.24" transform="translate(89.77 399.24) rotate(-47.77)"/><polygon class="cls-2" points="487.39 90.93 468.43 82.24 468.57 81.94 487.52 90.64 487.39 90.93"/><polygon class="cls-2" points="382.89 126.44 382.61 126.29 394.04 105.78 394.33 105.94 382.89 126.44"/><rect class="cls-2" x="391.29" y="98.22" width="22.18" height="0.33" transform="translate(39.05 297.33) rotate(-42.44)"/><rect class="cls-2" x="409.6" y="86.37" width="20.82" height="0.33" transform="translate(2.46 184.24) rotate(-24.81)"/><polygon class="cls-2" points="515.68 173.27 515.36 173.21 519.49 149.71 519.81 149.77 515.68 173.27"/><polygon class="cls-2" points="519.49 149.77 515.27 126.31 515.6 126.26 519.81 149.71 519.49 149.77"/><polygon class="cls-2" points="382.51 173.18 378.4 149.77 378.72 149.71 382.83 173.13 382.51 173.18"/><rect class="cls-2" x="368.78" y="137.89" width="23.75" height="0.33" transform="translate(178.03 488.63) rotate(-79.91)"/><polygon class="cls-2" points="449 220.58 448.96 220.26 468.56 217.48 468.6 217.8 449 220.58"/><polygon class="cls-2" points="448.96 220.58 429.38 217.73 429.43 217.41 449 220.26 448.96 220.58"/><polygon class="cls-2" points="468.48 82.25 448.95 79.49 448.99 79.17 468.52 81.92 468.48 82.25"/><polygon class="cls-2" points="429.48 82.32 429.43 82 448.94 79.17 448.99 79.49 429.48 82.32"/><circle class="cls-2" cx="403.94" cy="178.52" r="2.53"/><circle class="cls-1" cx="403.91" cy="178.5" r="1.63"/><circle class="cls-2" cx="391.83" cy="149.86" r="2.53"/><circle class="cls-1" cx="391.79" cy="149.84" r="1.63"/><circle class="cls-2" cx="404.32" cy="120.85" r="2.53"/><circle class="cls-1" cx="404.29" cy="120.83" r="1.63"/><circle class="cls-2" cx="425.57" cy="100.66" r="2.53"/><circle class="cls-1" cx="425.54" cy="100.64" r="1.63"/><circle class="cls-2" cx="472.45" cy="101.14" r="2.53"/><circle class="cls-1" cx="472.42" cy="101.12" r="1.63"/><circle class="cls-2" cx="494.32" cy="121.45" r="2.53"/><circle class="cls-1" cx="494.28" cy="121.43" r="1.63"/><circle class="cls-2" cx="491.38" cy="149.74" r="2.53"/><circle class="cls-1" cx="491.34" cy="149.72" r="1.63"/><circle class="cls-2" cx="473.62" cy="176.95" r="2.53"/><circle class="cls-1" cx="473.58" cy="176.93" r="1.63"/></g></svg>